<mxfile host="app.diagrams.net" modified="2024-03-25T16:24:32.609Z" agent="Mozilla/5.0 (Windows NT 10.0; Win64; x64; rv:123.0) Gecko/20100101 Firefox/123.0" etag="_fFLzoKMNe1kwBnJoyGf" version="24.1.0" type="device">
  <diagram name="Page-1" id="w8QQlZ-JK28JOUeCJ5Nt">
    <mxGraphModel dx="1730" dy="1615" grid="1" gridSize="10" guides="1" tooltips="1" connect="1" arrows="1" fold="1" page="1" pageScale="1" pageWidth="850" pageHeight="1100" math="0" shadow="0">
      <root>
        <mxCell id="0" />
        <mxCell id="1" parent="0" />
        <mxCell id="nRkZcLxH92Uqomh6cx5B-30" value="" style="rounded=0;whiteSpace=wrap;html=1;" parent="1" vertex="1">
          <mxGeometry x="-10" y="-10" width="540" height="520" as="geometry" />
        </mxCell>
        <mxCell id="nRkZcLxH92Uqomh6cx5B-15" value="" style="rounded=0;whiteSpace=wrap;html=1;fillColor=none;" parent="1" vertex="1">
          <mxGeometry x="10" width="500" height="190" as="geometry" />
        </mxCell>
        <mxCell id="vZogYbZQuC4aXCzoms1a-2" value="&lt;div style=&quot;font-size: 24px;&quot;&gt;&lt;font style=&quot;font-size: 24px;&quot;&gt;Frontend&lt;/font&gt;&lt;/div&gt;" style="rounded=0;whiteSpace=wrap;html=1;" parent="1" vertex="1">
          <mxGeometry x="10" width="120" height="40" as="geometry" />
        </mxCell>
        <mxCell id="vZogYbZQuC4aXCzoms1a-17" style="edgeStyle=orthogonalEdgeStyle;rounded=0;orthogonalLoop=1;jettySize=auto;html=1;exitX=0;exitY=0.25;exitDx=0;exitDy=0;entryX=0.5;entryY=0;entryDx=0;entryDy=0;" parent="1" source="nRkZcLxH92Uqomh6cx5B-1" target="nRkZcLxH92Uqomh6cx5B-4" edge="1">
          <mxGeometry relative="1" as="geometry">
            <mxPoint x="125" y="115" as="sourcePoint" />
            <mxPoint x="100" y="90.00000000000023" as="targetPoint" />
          </mxGeometry>
        </mxCell>
        <mxCell id="vZogYbZQuC4aXCzoms1a-19" value="&lt;font style=&quot;font-size: 18px;&quot;&gt;toggle menu&lt;/font&gt;" style="edgeLabel;html=1;align=center;verticalAlign=middle;resizable=0;points=[];" parent="vZogYbZQuC4aXCzoms1a-17" connectable="0" vertex="1">
          <mxGeometry x="-0.0289" y="-3" relative="1" as="geometry">
            <mxPoint as="offset" />
          </mxGeometry>
        </mxCell>
        <mxCell id="vZogYbZQuC4aXCzoms1a-41" value="" style="shape=cylinder3;whiteSpace=wrap;html=1;boundedLbl=1;backgroundOutline=1;size=15;" parent="1" vertex="1">
          <mxGeometry x="105" y="380" width="310" height="120" as="geometry" />
        </mxCell>
        <mxCell id="vZogYbZQuC4aXCzoms1a-46" value="&lt;font style=&quot;font-size: 20px;&quot;&gt;SQLite Database&lt;/font&gt;" style="text;html=1;strokeColor=none;fillColor=none;align=center;verticalAlign=middle;whiteSpace=wrap;rounded=0;" parent="1" vertex="1">
          <mxGeometry x="180" y="380" width="160" height="30" as="geometry" />
        </mxCell>
        <mxCell id="nRkZcLxH92Uqomh6cx5B-1" value="&lt;font style=&quot;font-size: 26px;&quot;&gt;Map&lt;/font&gt;&lt;br&gt;&lt;br&gt;&lt;br&gt;&lt;br&gt;&lt;br&gt;" style="rounded=0;whiteSpace=wrap;html=1;" parent="1" vertex="1">
          <mxGeometry x="180" y="30" width="160" height="150" as="geometry" />
        </mxCell>
        <mxCell id="nRkZcLxH92Uqomh6cx5B-13" style="edgeStyle=orthogonalEdgeStyle;rounded=0;orthogonalLoop=1;jettySize=auto;html=1;entryX=0.5;entryY=0;entryDx=0;entryDy=0;exitX=0.5;exitY=1;exitDx=0;exitDy=0;" parent="1" source="nRkZcLxH92Uqomh6cx5B-4" target="nRkZcLxH92Uqomh6cx5B-9" edge="1">
          <mxGeometry relative="1" as="geometry">
            <mxPoint x="280" y="220" as="targetPoint" />
            <Array as="points">
              <mxPoint x="90" y="230" />
              <mxPoint x="260" y="230" />
            </Array>
            <mxPoint x="80" y="190" as="sourcePoint" />
          </mxGeometry>
        </mxCell>
        <mxCell id="nRkZcLxH92Uqomh6cx5B-14" value="&lt;font style=&quot;font-size: 18px;&quot;&gt;execute a &lt;br&gt;CRUD operation&lt;/font&gt;" style="edgeLabel;html=1;align=center;verticalAlign=middle;resizable=0;points=[];" parent="nRkZcLxH92Uqomh6cx5B-13" vertex="1" connectable="0">
          <mxGeometry x="0.1319" y="-1" relative="1" as="geometry">
            <mxPoint x="-12" y="-11" as="offset" />
          </mxGeometry>
        </mxCell>
        <mxCell id="nRkZcLxH92Uqomh6cx5B-4" value="&lt;font style=&quot;font-size: 24px;&quot;&gt;LMenu&lt;/font&gt;" style="rounded=0;whiteSpace=wrap;html=1;" parent="1" vertex="1">
          <mxGeometry x="20" y="90" width="140" height="90" as="geometry" />
        </mxCell>
        <mxCell id="nRkZcLxH92Uqomh6cx5B-5" value="&lt;font style=&quot;font-size: 24px;&quot;&gt;RMenu&lt;/font&gt;&lt;br&gt;&lt;br&gt;&lt;br&gt;&lt;div&gt;&lt;br/&gt;&lt;/div&gt;" style="rounded=0;whiteSpace=wrap;html=1;" parent="1" vertex="1">
          <mxGeometry x="360" y="90" width="140" height="90" as="geometry" />
        </mxCell>
        <mxCell id="nRkZcLxH92Uqomh6cx5B-6" style="edgeStyle=orthogonalEdgeStyle;rounded=0;orthogonalLoop=1;jettySize=auto;html=1;exitX=1;exitY=0.25;exitDx=0;exitDy=0;entryX=0.5;entryY=0;entryDx=0;entryDy=0;" parent="1" source="nRkZcLxH92Uqomh6cx5B-1" target="nRkZcLxH92Uqomh6cx5B-5" edge="1">
          <mxGeometry relative="1" as="geometry">
            <mxPoint x="475" y="189.66" as="sourcePoint" />
            <mxPoint x="480" y="120" as="targetPoint" />
          </mxGeometry>
        </mxCell>
        <mxCell id="nRkZcLxH92Uqomh6cx5B-7" value="&lt;font style=&quot;font-size: 18px;&quot;&gt;toggle menu&lt;/font&gt;" style="edgeLabel;html=1;align=center;verticalAlign=middle;resizable=0;points=[];" parent="nRkZcLxH92Uqomh6cx5B-6" connectable="0" vertex="1">
          <mxGeometry x="-0.0289" y="-3" relative="1" as="geometry">
            <mxPoint y="-3" as="offset" />
          </mxGeometry>
        </mxCell>
        <mxCell id="nRkZcLxH92Uqomh6cx5B-8" value="&lt;div style=&quot;font-size: 24px;&quot;&gt;&lt;font style=&quot;font-size: 24px;&quot;&gt;Backend&lt;/font&gt;&lt;/div&gt;" style="rounded=0;whiteSpace=wrap;html=1;" parent="1" vertex="1">
          <mxGeometry x="10" y="250" width="120" height="40" as="geometry" />
        </mxCell>
        <mxCell id="nRkZcLxH92Uqomh6cx5B-9" value="&lt;font style=&quot;font-size: 24px;&quot;&gt;Data &lt;span style=&quot;color: rgb(0, 0, 0);&quot;&gt;Managment&lt;/span&gt;&lt;/font&gt;" style="rounded=0;whiteSpace=wrap;html=1;" parent="1" vertex="1">
          <mxGeometry x="190" y="270" width="140" height="60" as="geometry" />
        </mxCell>
        <mxCell id="nRkZcLxH92Uqomh6cx5B-10" value="&lt;font style=&quot;font-size: 24px;&quot;&gt;Algorithms&lt;/font&gt;" style="rounded=0;whiteSpace=wrap;html=1;" parent="1" vertex="1">
          <mxGeometry x="370" y="270" width="120" height="60" as="geometry" />
        </mxCell>
        <mxCell id="nRkZcLxH92Uqomh6cx5B-11" style="edgeStyle=orthogonalEdgeStyle;rounded=0;orthogonalLoop=1;jettySize=auto;html=1;exitX=0.5;exitY=1;exitDx=0;exitDy=0;entryX=0.5;entryY=0;entryDx=0;entryDy=0;" parent="1" source="nRkZcLxH92Uqomh6cx5B-5" target="nRkZcLxH92Uqomh6cx5B-10" edge="1">
          <mxGeometry relative="1" as="geometry">
            <mxPoint x="190" y="70" as="sourcePoint" />
            <mxPoint x="90" y="100" as="targetPoint" />
          </mxGeometry>
        </mxCell>
        <mxCell id="nRkZcLxH92Uqomh6cx5B-12" value="&lt;font style=&quot;font-size: 18px;&quot;&gt;calculate&lt;/font&gt;" style="edgeLabel;html=1;align=center;verticalAlign=middle;resizable=0;points=[];" parent="nRkZcLxH92Uqomh6cx5B-11" connectable="0" vertex="1">
          <mxGeometry x="-0.0289" y="-3" relative="1" as="geometry">
            <mxPoint y="-8" as="offset" />
          </mxGeometry>
        </mxCell>
        <mxCell id="nRkZcLxH92Uqomh6cx5B-16" value="" style="rounded=0;whiteSpace=wrap;html=1;fillColor=none;" parent="1" vertex="1">
          <mxGeometry x="10" y="250" width="500" height="90" as="geometry" />
        </mxCell>
        <mxCell id="nRkZcLxH92Uqomh6cx5B-18" value="&lt;font style=&quot;font-size: 28px;&quot;&gt;uav&lt;/font&gt;" style="rounded=0;whiteSpace=wrap;html=1;" parent="1" vertex="1">
          <mxGeometry x="115" y="420.00000000000006" width="140" height="60" as="geometry" />
        </mxCell>
        <mxCell id="nRkZcLxH92Uqomh6cx5B-19" value="&lt;font style=&quot;font-size: 28px;&quot;&gt;camera&lt;/font&gt;" style="rounded=0;whiteSpace=wrap;html=1;" parent="1" vertex="1">
          <mxGeometry x="270" y="420.00000000000006" width="135" height="60" as="geometry" />
        </mxCell>
        <mxCell id="nRkZcLxH92Uqomh6cx5B-2" value="&lt;font style=&quot;font-size: 24px;&quot;&gt;Calculate&lt;/font&gt;" style="rounded=0;whiteSpace=wrap;html=1;" parent="1" vertex="1">
          <mxGeometry x="370" y="130" width="120" height="50" as="geometry" />
        </mxCell>
        <mxCell id="qMrlluLUWSRXeHiUPn3N-3" style="edgeStyle=orthogonalEdgeStyle;rounded=0;orthogonalLoop=1;jettySize=auto;html=1;exitX=0.5;exitY=1;exitDx=0;exitDy=0;entryX=0.5;entryY=0;entryDx=0;entryDy=0;" parent="1" source="nRkZcLxH92Uqomh6cx5B-9" target="vZogYbZQuC4aXCzoms1a-46" edge="1">
          <mxGeometry relative="1" as="geometry">
            <mxPoint x="450" y="435" as="sourcePoint" />
            <mxPoint x="450" y="505" as="targetPoint" />
          </mxGeometry>
        </mxCell>
        <mxCell id="qMrlluLUWSRXeHiUPn3N-4" value="&lt;font style=&quot;font-size: 18px;&quot;&gt;manage data&lt;/font&gt;" style="edgeLabel;html=1;align=center;verticalAlign=middle;resizable=0;points=[];" parent="qMrlluLUWSRXeHiUPn3N-3" connectable="0" vertex="1">
          <mxGeometry x="-0.0289" y="-3" relative="1" as="geometry">
            <mxPoint x="3" y="6" as="offset" />
          </mxGeometry>
        </mxCell>
      </root>
    </mxGraphModel>
  </diagram>
</mxfile>
